<svg width="389.523" height="284.51" viewBox="0 0 103.061 75.277" xml:space="preserve" xmlns:xlink="http://www.w3.org/1999/xlink" xmlns="http://www.w3.org/2000/svg"><defs><linearGradient id="a"><stop style="stop-color:#5564f1;stop-opacity:1" offset=".319"/><stop style="stop-color:#0f740d;stop-opacity:1" offset=".872"/></linearGradient><linearGradient xlink:href="#a" id="b" x1="-55.129" y1="92.173" x2="475.893" y2="304.561" gradientUnits="userSpaceOnUse" gradientTransform="translate(16.279 6.014)scale(.15767)"/></defs><path d="M69.7 75.022c-11.913-2.03 3.091-30.673-45.007-4.69-14.416 7.788-27.14 7.05-24.29-16.008 2.53-20.483 21.484-24.252.678-45.87-2.613-3.716 21.09-15.534 34.657-2.44 24.397 23.55 29.877-.246 36.356 7.556 25.4 29.122-.7 21.185 10.117 38.64 7.69 12.411.467 25.025-12.51 22.812m32.906-41.414c-.187.181-.553.506-.815.722-.683.564-.861.836-.933 1.42-.043.346-.29.886-.406.886-.014 0 .003-.198.038-.441.17-1.228.124-1.351-.273-.75-.227.343-.267.507-.344 1.4-.039.452-.121.708-.272.848-.095.087-.1.07-.067-.226.05-.443.041-1.716-.014-1.762-.083-.07-.219.088-.394.458-.223.472-.241.576-.263 1.46-.014.577-.03.787-.069.866-.055.113-.244.329-.287.329-.015 0-.028-.543-.028-1.205 0-1.562-.04-1.63-.47-.776-.341.678-.436 1.162-.399 2.026.027.623.001.745-.2.95a.7.7 0 0 1-.174.148c-.017 0-.025-.611-.019-1.412.015-1.703-.008-1.818-.28-1.437-.53.743-.799 1.792-.8 3.126-.001.437-.042.572-.226.753-.208.204-.266.198-.236-.026.026-.208.028-3.387 0-3.432-.096-.158-.708.624-.929 1.186-.197.502-.252.892-.31 2.177-.044.994-.06 1.067-.287 1.306-.23.242-.27.24-.241-.017.023-.209.086-2.81.088-3.603 0-.652-.112-.637-.583.077-.635.965-.802 1.599-.929 3.517-.07 1.07-.104 1.173-.444 1.388-.164.103-.167.092-.102-.443.032-.26.073-.826.09-1.255.017-.43.063-1.322.102-1.983.078-1.335.074-1.384-.102-1.292-.215.114-.749.877-1.018 1.456-.423.909-.51 1.405-.7 3.982-.026.35-.09.513-.256.655-.158.135-.302.206-.306.15-.015-.158.11-2.904.191-4.268.094-1.568.079-1.596-.495-.869-.796 1.012-1.144 1.87-1.27 3.137a45 45 0 0 0-.154 2.344c0 .373-.18.688-.483.846-.187.097-.182.147-.116-1.052l.107-1.965c.169-3.069.167-3.013.107-3.098-.195-.27-1.083 1.108-1.529 2.372-.35.993-.44 1.588-.531 3.48-.05 1.02-.102 1.179-.478 1.42-.325.21-.33.198-.27-.538.038-.455.145-2.305.22-3.809l.09-1.725c.054-.973 0-1.067-.382-.655-.697.753-1.414 2.191-1.61 3.229-.062.33-.2 2.096-.253 3.255-.02.457-.053.89-.072.963-.06.231-.4.503-.713.566l-.102.022.02-.256c.01-.14.049-.864.086-1.607.038-.742.09-1.77.119-2.285.028-.514.066-1.247.085-1.628s.05-.951.068-1.268c.052-.857.015-.904-.394-.508-.933.904-1.662 2.31-1.914 3.692-.1.546-.34 3.476-.342 4.173 0 .447-.431.954-.811.958-.053 0-.055.135.05-5.363.058-3.04.058-3.051-.075-3.051-.262 0-1.25 1.275-1.702 2.199-.699 1.424-.8 2.011-1.03 5.921-.078 1.345-.087 1.383-.343 1.583-.144.111-.47.28-.494.255-.01-.01.006-1.846.038-4.08.078-5.631.09-5.213-.136-5.133-.308.11-1.393 1.73-1.797 2.683-.596 1.403-.703 2.2-.864 6.424l-.045 1.147a.6.6 0 0 1-.093.34c-.093.142-.511.48-.546.442-.023-.024-.098-1.546-.165-3.315a82 82 0 0 0-.052-1.194c-.01-.162-.033-.692-.05-1.178-.146-3.86-.174-4.324-.269-4.402-.143-.118-.246-.027-.683.61-1.016 1.482-1.485 2.665-1.77 4.462-.07.433-.074.613-.093 3.555l-.02 3.1-.094.161c-.127.22-.59.61-.65.547-.018-.02-.08-1.298-.31-6.457a956 956 0 0 1-.18-4.353c-.047-1.181-.214-1.143-1.07.24-1.665 2.692-2.085 6.022-1.467 11.645.115 1.048.109 1.102-.172 1.418-.306.346-.488.404-.489.157 0-.091-.127-1.294-.34-3.22-.07-.629-.22-2.028-.475-4.415l-.204-1.905-.255-2.407c-.123-1.16-.516-.902-1.327.872-.866 1.895-1.189 3.214-1.306 5.345-.08 1.438.177 4.163.668 7.098.104.62.197 1.19.207 1.27.026.215-.107.43-.513.83-10.521 7.063-8.435 7.86-4.947 5.347 1.487-1.071 5.348-3.83 6.101-4.112.417-.188 1.571-.933 4.393.328 2.734 1.222 3.812 1.634 4.822 1.84 1.857.378 4.482.436 4.598.102.063-.184.512.128-7.043-4.894a193 193 0 0 1-2.258-1.513c-.097-.098.515-.452.787-.456.238-.003.653.218 2.663 1.425 3.314 1.989 5.045 2.667 7.569 2.965 1.2.142 1.343.017.628-.552-.49-.39-1.373-1.132-3.548-2.979-2.318-1.967-3.561-3.012-3.914-3.29l-.264-.206.077-.066a1.4 1.4 0 0 1 .64-.256c.258-.02.309.01 1.27.773 2.588 2.05 2.96 2.3 4.33 2.887 1.852.796 4.618 1.355 4.618.934 0-.099-.143-.244-.875-.887a382 382 0 0 1-4.298-3.842c-.867-.795-1.468-1.317-1.864-1.62-.278-.213-.28-.24-.034-.356.493-.23.609-.19 1.507.537 2.074 1.676 2.822 2.165 4.095 2.68 2.015.814 4.704 1.243 4.467.712-.044-.099-4.04-3.454-5.171-4.342a26 26 0 0 0-1.588-1.112c-.098-.06-.178-.125-.178-.142 0-.082.459-.225.73-.227h.272l.68.49c2.468 1.775 3.491 2.337 5.093 2.794.987.282 2.855.506 3.1.372.177-.096.146-.128-.97-1-3.244-2.528-4.427-3.404-5.178-3.831-.27-.153-.277-.176-.082-.264.485-.219.612-.188 1.49.37 2.182 1.386 2.679 1.645 3.864 2.015 1.298.406 3.09.593 3.09.322 0-.087-.08-.154-.68-.566-.289-.2-.93-.659-1.425-1.02-1.652-1.207-2.343-1.664-3.154-2.086-.227-.118-.412-.226-.412-.24 0-.065.271-.156.51-.17l.254-.015.968.501c2.596 1.345 3.72 1.687 5.722 1.745.842.024.964-.045.553-.312-1.271-.826-4.373-2.598-5.046-2.883-.364-.154-.36-.2.02-.312.29-.086.47-.049.924.19 2.269 1.19 4.05 1.681 5.763 1.586.758-.042.724-.091-.57-.812-1.745-.972-2.676-1.464-3.223-1.703a66 66 0 0 1-.674-.297l-.114-.053.08-.062c.315-.246.559-.236 1.18.052 1.07.496 1.937.828 2.47.946 1.378.305 3.795.168 3.414-.193-.038-.036-.38-.196-.76-.356-.379-.16-1.323-.567-2.099-.905-.775-.338-1.52-.66-1.658-.715-.292-.119-.303-.138-.127-.23.26-.139.414-.122 1.09.115 1.894.664 2.025.697 2.893.718.98.025 1.946-.08 2.298-.251.264-.128.177-.185-.78-.517-.409-.143-.989-.347-1.288-.455-.973-.351-1.302-.46-1.815-.606-.567-.162-.584-.181-.286-.33.239-.119.36-.108 1.286.119 1.694.414 2.439.452 3.567.181.664-.16.7-.311.113-.474a82 82 0 0 1-1.404-.427 43 43 0 0 0-1.469-.436c-.408-.104-.455-.145-.266-.237.164-.08.358-.07.946.047 1.318.26 1.966.235 3.04-.12.871-.287.86-.393-.053-.537-.331-.053-.725-.12-.874-.15a15 15 0 0 0-1.253-.214c-.479-.06-.466-.053-.305-.178l.128-.099.494.015c1.67.05 1.942.017 2.752-.34.562-.247.714-.405.442-.46-.133-.028-2.006-.134-2.334-.133-.23 0-.252-.019-.136-.128.16-.148.227-.16 1.13-.204 1.2-.06 1.337-.099 1.935-.561.59-.456.57-.467-.791-.428-1.123.032-1.067.037-.958-.081.104-.113.226-.145.798-.211.766-.089 1.268-.3 1.674-.706.327-.325.048-.354-1.16-.117-.474.093-.514.09-.398-.037.097-.104.173-.135.597-.24.65-.163.982-.341 1.307-.703.298-.334.193-.344-.641-.062a9 9 0 0 1-.593.189c-.114 0 .306-.336.637-.508.665-.347.736-.449.987-1.401.102-.388.224-.821.271-.963.176-.524.098-.542-.372-.087" fill="#5865f2" style="fill:url(#b);stroke-width:.125"/></svg>