<svg width="377.953" height="100mm" viewBox="0 0 100 100" xml:space="preserve" xmlns="http://www.w3.org/2000/svg"><defs><radialGradient id="b" cx="578.89" cy="473.32" r="353.94" gradientTransform="matrix(1 0 0 1.0971 0 -45.942)" gradientUnits="userSpaceOnUse"><stop stop-color="#c2c0c2" offset="0" style="stop-color:#fff;stop-opacity:1"/><stop stop-color="#ebebeb" offset="1"/></radialGradient><clipPath id="a" transform="translate(-18 -20)"><path d="M71.603 512.12c0 243.26 197.2 440.46 440.46 440.46s440.46-197.19 440.46-440.46c0-243.26-197.2-440.46-440.46-440.46s-440.46 197.2-440.46 440.46" style="fill:none"/></clipPath></defs><g shape-rendering="geometricPrecision" style="fill:#fff;fill-opacity:1"><path transform="translate(-1.813 -2.014)scale(.1007)" d="M514.5 20C788.71 20 1011 242.29 1011 516.5S788.71 1013 514.5 1013 18 790.71 18 516.5 240.29 20 514.5 20" style="fill:#fff;fill-opacity:1"/><path transform="translate(-1.813 -2.014)scale(.1007)" d="M512.06 25.849c268.56 0 486.27 217.71 486.27 486.27s-217.71 486.27-486.27 486.27-486.27-217.71-486.27-486.27S243.5 25.849 512.06 25.849" style="fill:#fff;fill-opacity:1"/><path d="M49.938 492.12c0 245.29 198.84 444.12 444.12 444.12s444.13-198.83 444.13-444.12c0-245.28-198.84-444.12-444.13-444.12S49.938 246.84 49.938 492.12" style="fill:#fff;fill-opacity:1" transform="scale(.1007)"/></g><g clip-path="url(#a)" style="fill:#000;fill-opacity:1;stroke-width:1.00293;stroke-dasharray:none" transform="scale(.1007)"><path shape-rendering="geometricPrecision" style="fill:#000;fill-opacity:1;stroke-width:1.00293;stroke-dasharray:none" d="M53.603 51.665h880.92v880.91H53.603Z"/></g><path transform="translate(-1.813 -2.014)scale(.1007)" d="M684.91 370.5a199.24 199.24 0 0 1-277.24 70.456 202.8 202.8 0 0 1-44.913-37.773 198.92 198.92 0 0 1-49.898-141.13c.284-5.79.769-11.563 1.527-17.31a199 199 0 0 1 2.977-16.874q1.897-8.578 4.548-16.962 2.572-8.16 5.863-16.073c2.275-5.485 4.81-10.854 7.547-16.122 2.88-5.548 6.073-10.945 9.48-16.184q4.716-7.249 10.045-14.062c3.854-4.95 7.95-9.727 12.27-14.276q6.542-6.888 13.67-13.162c4.838-4.263 9.912-8.25 15.14-12.022q4.042-2.917 8.236-5.612a244.39 244.39 0 0 0-109.08 323.49q.82 1.704 1.668 3.395.384.768.774 1.534a4.6 4.6 0 0 0 .47.917c.324.359.405.299.9.29 2.578-.047 5.158-.035 7.736.02q7.144.155 14.266.815a199.58 199.58 0 0 1 178.16 166.37 201.3 201.3 0 0 1 .641 60.166 198.75 198.75 0 0 1-46.16 101.86 202.2 202.2 0 0 1-49.778 41.784 199.86 199.86 0 0 1-124.15 26.494 203 203 0 0 1-23.203-4.03 199 199 0 0 1-14.71-4.07 242.6 242.6 0 0 0 68.546 18.972 247 247 0 0 0 66.41-.798 243.5 243.5 0 0 0 108.67-44.887 246 246 0 0 0 59.733-63.074q1.042-1.587 2.058-3.19c.263-.415.85-1.069.774-1.509a8.5 8.5 0 0 0-1.05-1.945q-2.003-3.757-3.844-7.598-3.698-7.716-6.722-15.732a198 198 0 0 1-9.34-33.367 200.9 200.9 0 0 1 .04-73.98 197.9 197.9 0 0 1 21.357-59.255 199.08 199.08 0 0 1 173.09-103.06q7.337-.05 14.663.425 7.066.47 14.088 1.418 6.952.95 13.827 2.393 6.73 1.421 13.355 3.29 6.49 1.842 12.843 4.119 6.441 2.312 12.708 5.064 6.39 2.79 12.561 6.046 6.166 3.242 12.1 6.907a192 192 0 0 1 10.913 7.25q5.49 3.94 10.726 8.209c3.603 2.93 7.08 6.019 10.462 9.202q5.401 5.083 10.408 10.563 4.998 5.447 9.57 11.27c3.4 4.318 6.639 8.772 9.66 13.363a206 206 0 0 1 8.75 14.515 200 200 0 0 1 10.067 21.366 207 207 0 0 1 7.973 24.37 243.74 243.74 0 0 0-51.678-120.94 245.7 245.7 0 0 0-75.012-62.481 242.9 242.9 0 0 0-95.948-28.304q-4.267-.342-8.544-.534z" shape-rendering="geometricPrecision" style="fill:url(#b)"/></svg>